# xmcd
#
# Track frame offsets: 
#        150
#        15086
#        31802
#        52000
#        68387
#        85012
#        103836
#        121060
#        138367
#        156380
#        173877
#        191795
#        210938
#
# Disc length: 3052 seconds
#
# Revision: 4
# Processed by: cddbd v1.5.2PL0 Copyright (c) Steve Scherf et al.
# Submitted via: ExactAudioCopy v0.95b4
#
DISCID=9e0bea0d
DTITLE=Trace Adkins - Dangerous Man
DYEAR=2006
DGENRE=Country
TTITLE0=Dangerous Man
TTITLE1=Ladies Love Country Boys
TTITLE2=I Came Here to Live
TTITLE3=Swing
TTITLE4=Ain't No Women Like You
TTITLE5=Southern Hallelujah
TTITLE6=I Wanna Feel Something
TTITLE7=High
TTITLE8=Fightin' Words
TTITLE9=The Stubbon One
TTITLE10=Ride
TTITLE11=Words Get in the Way
TTITLE12=Honky Tonk Badonkadonk
EXTD=ID3G: 2
EXTT0=
EXTT1=
EXTT2=
EXTT3=
EXTT4=
EXTT5=
EXTT6=
EXTT7=
EXTT8=
EXTT9=
EXTT10=
EXTT11=
EXTT12=
PLAYORDER=
